<svg id="Layer_1" data-name="Layer 1" xmlns="http://www.w3.org/2000/svg" viewBox="0 0 534.73 660.38">
   <defs>
      <style>
         .cls-1{fill:#f6bc5f;}.cls-1,.cls-2,.cls-3,.cls-5,.cls-6,.cls-7{fill-rule:evenodd;}.cls-2{fill:#88002c;}.cls-3{fill:#f7784f;}.cls-4,.cls-7{fill:#4f0100;}.cls-5{fill:#fff;}.cls-6{fill:#e6e6e6;}</style>
   </defs>
   <polygon class="cls-1"
      points="227.47 423.29 261.4 413.66 261.4 517.76 246.96 531.06 229.58 523.26 227.47 423.29" />
   <polygon class="cls-2"
      points="327.9 425.6 293.97 415.97 293.97 520.07 308.41 533.37 325.79 525.57 327.9 425.6" />
   <polygon class="cls-3"
      points="262.1 412.32 296.04 401.5 296.04 518.43 281.59 533.37 264.22 524.61 262.1 412.32" />
   <rect class="cls-4" x="225.03" y="421.26" width="9.11" height="113.86" />
   <rect class="cls-4" x="255.17" y="413.67" width="9.11" height="113.86" />
   <rect class="cls-4" x="324.11" y="415.97" width="9.11" height="113.86"
      transform="translate(657.33 945.79) rotate(180)" />
   <rect class="cls-4" x="293.97" y="408.39" width="9.11" height="113.86"
      transform="translate(597.04 930.63) rotate(180)" />
   <path class="cls-5"
      d="M258.91,578.65h40.32l.67-1.11v-.11L324,535.66v-5.55l-7.66,7a4.7,4.7,0,0,1-6.11,0l-12.33-11-15.66,14.22a4.54,4.54,0,0,1-6.34-.23l-14.44-13.77-11.55,12.22a4.65,4.65,0,0,1-6.44.22l-9.33-8.55v5.44l24.21,41.77.12.33.44.89Z" />
   <path class="cls-6"
      d="M279.24,538.15v40.5h-21.7l-.47-1-.12-.36-25.85-45.6v-5.94l10,9.34a4.9,4.9,0,0,0,6.88-.25l12.33-13.34,15.41,15a4.64,4.64,0,0,0,3.56,1.58Zm-38.18-3" />
   <path class="cls-7"
      d="M328.67,515.33a4.91,4.91,0,0,0-3.45,1.45l-12,10.77L301,516.44a4.62,4.62,0,0,0-6.22.11l-15.33,13.91c0-.09,0-.19.07-.29l-.41.38-.9-.85c0,.09,0,.19,0,.28l-14.8-13.43a4.62,4.62,0,0,0-6.22-.11L245,527.55l-12-10.77a4.91,4.91,0,0,0-3.45-1.45,4.57,4.57,0,0,0-4.55,4.56v17a4.73,4.73,0,0,0,.66,2.34l9.28,16-.06,0,15.45,26.85.22.22,20.3,35.28,4.24,7.37,0,0a4.5,4.5,0,0,0,2.36,1.9l.32.12.36.07a3,3,0,0,0,.51.09,3,3,0,0,0,.42,0,3.13,3.13,0,0,0,.94-.1l.36-.07.31-.12a4.49,4.49,0,0,0,2.37-1.9s0,0,0,0l4.24-7.37,20.31-35.28.22-.22,13-22.56h-.06l11.74-20.31a4.73,4.73,0,0,0,.66-2.34v-17A4.57,4.57,0,0,0,328.67,515.33ZM324,535.66l-23.28,40.46-.83,1.42a.68.68,0,0,0-.08.16l-.55.95H259l-.55-.95a.54.54,0,0,0-.09-.16l-.82-1.42-23.28-40.46v-5.55l7.66,7a4.7,4.7,0,0,0,6.11,0l12.33-11L276,540.33a4.84,4.84,0,0,0,6.23,0l15.66-14.22,12.33,11a4.7,4.7,0,0,0,6.11,0l7.66-7Z" />
   <polygon class="cls-1"
      points="264.28 408.39 218.29 425.58 194.45 425.58 168.55 425.58 154.07 413.66 130.24 389.81 114.65 389.81 93.55 376.97 84.38 360.46 84.38 334.82 72.94 310.73 63.36 297.21 61.57 279.53 72.94 265.44 67.86 237.55 65.11 213.71 67.49 200.63 82.55 186.19 82.55 169.79 79.49 138.8 107.31 121.99 111.9 101.81 115.1 77.94 149.5 68.79 157.76 50.45 188.47 35.77 213.88 35.77 259.73 43.62 275.93 75.21 303.08 43.62 333.22 35.77 357.71 35.77 379.72 42.9 395.77 40.81 405.4 60.53 416.1 72.46 435.67 85.17 443.92 106.07 448.51 118.32 459.52 127.49 473.27 152.25 473.27 175.19 473.27 198.21 490.52 218.34 490.52 246.73 485.07 270.51 490.52 293.44 485.07 326.52 478.78 343.95 466.85 376.97 453.1 389.81 423.62 396.81 416.1 408.39 398.75 418.85 367.38 425.58 327.9 425.6 298.52 415.97 277.93 401.5 264.28 408.39" />
   <path class="cls-4"
      d="M493.18,268.72c-2.25-3.64-1.48-6,.25-9.26,12.59-23.53,9.64-51.78-10.46-70.09-1.6-1.47-1.93-2.65-1.2-4.78a58,58,0,0,0-25.43-68.65c-2.72-1.61-3.38-3.3-3.28-6.32a47.84,47.84,0,0,0-33.54-47.13,6.78,6.78,0,0,1-4.59-3.89c-2.86-6.23-13.64-13.75-19.16-17.78C371.92,23.39,323.29,28,302.55,39a55.32,55.32,0,0,0-21.23,19.41c-1.37,2.16-2.22,2.52-3.34,1.22,0,1.48-.06,2.6-.05,3.06.18,15.79.19,31.58.19,47.37q0,12.63,0,25.24l.75-.06c-.13,0,.67,62.11.67,67,0,4.53.67,53.79-.25,64.82.56,31.13.4,123.94-.42,123.94h0q0,8.28,0,16.55c.49-.24,1.12.06,2,1.56,10,16.64,39.24,21.4,58.33,25.41.73.15,15.83,2.18,44.24-.85,22.06-2.36,33.26-12.86,43.53-28.82,1.32-2.05,2.93-2.26,5-2.36,30.77-1.51,56.49-31.83,52.78-62.34a8,8,0,0,1,2.26-7.08A54.12,54.12,0,0,0,493.18,268.72ZM473,324.52c-4.45,4.15-5.67,8.2-4.57,14.09,4.79,25.59-19.58,51.45-42.92,47.68-4.83-.78-7.65,2-9.71,6a45.93,45.93,0,0,1-24,22.34c-25.71,10.5-91.67,4.7-101.36-21.79-11.63-31.78,9.47-63.66,43.42-65.59,5.74-.33,9.4-3.69,9.13-8.39s-4.11-7.78-9.89-7.53a63.08,63.08,0,0,0-42.86,18.53,24.69,24.69,0,0,0-1.91,2.39l-1.13-.39V184.35c0-12.2,4.33-17.26,16.47-19.23,4.61-.75,7.71-4.28,7.38-8.43s-3.78-7.36-8.42-7.41c-5.27,0-10.16,1.6-14.76,3.78-.92-.54-.65-1.27-.65-1.86,0-20.22-2.24-40.56,0-60.65,2.57-22.68,7.94-33.34,26-41.69,25.84-12,75.95-1.41,84,11.45-.66,1.18-2,1.08-3,1.31A46.18,46.18,0,0,0,372.4,73.39c-3.7,3.44-4.24,7.87-1.45,11.36s7.67,4.14,11.64.72c8-6.88,16.84-10.39,27.48-8.81a32,32,0,0,1,27,29.26c.17,2.54-.69,2.84-2.9,2.57-30.22-3.59-68.54,24.15-69.27,58.43-.07,3.79,1.37,6.76,5,8.32,3.15,1.37,6,.62,8.46-1.66,1.86-1.73,2.38-4,2.52-6.51a44,44,0,0,1,15.36-31.71c16.13-14.27,48.44-14.12,62,2.7,11.48,14.27,14.56,29.76,6.14,46.77-2.9,5.85-1.84,8.68,4,13.11,13.31,10.08,19.06,23.52,15.86,39.87s-12.68,27.53-28.44,32.93a34.5,34.5,0,0,1-9.87,1.77c-5.18.21-8.67,3.59-8.62,8s3.69,7.93,8.78,7.86a49.65,49.65,0,0,0,29.65-10.16c3.11-2.33,4.13-1.55,5.61,1.56A38.61,38.61,0,0,1,473,324.52Z" />
   <path class="cls-4"
      d="M492.43,271.24c.16.28.32.56.47.84C492.75,271.8,492.59,271.52,492.43,271.24Z" />
   <path class="cls-4" d="M493.37,273c.15.29.3.57.44.86C493.67,273.56,493.52,273.28,493.37,273Z" />
   <path class="cls-4"
      d="M494.25,274.78c.13.29.27.57.4.86C494.52,275.35,494.38,275.07,494.25,274.78Z" />
   <path class="cls-4" d="M495.06,276.6l.36.85Z" />
   <path class="cls-4" d="M495.78,278.41c.11.3.23.58.33.88C496,279,495.89,278.71,495.78,278.41Z" />
   <path class="cls-4" d="M496.44,280.26l.3.88Z" />
   <path class="cls-4" d="M497,282.14c.09.29.18.58.26.87C497.21,282.72,497.12,282.43,497,282.14Z" />
   <path class="cls-4" d="M497.54,284c.08.28.15.57.22.86C497.69,284.61,497.62,284.32,497.54,284Z" />
   <path class="cls-4" d="M498,285.93c.06.29.13.58.18.88C498.11,286.51,498,286.22,498,285.93Z" />
   <path class="cls-4"
      d="M498.34,287.84c.05.29.11.59.15.89C498.45,288.43,498.39,288.13,498.34,287.84Z" />
   <path class="cls-4" d="M498.63,289.77c0,.3.08.6.11.9C498.71,290.37,498.66,290.07,498.63,289.77Z" />
   <path class="cls-4"
      d="M498.84,291.76c0,.29.06.57.08.86C498.9,292.33,498.87,292.05,498.84,291.76Z" />
   <path class="cls-4" d="M499,298.54c0-.2,0-.4,0-.6C499,298.14,499,298.34,499,298.54Z" />
   <path class="cls-4" d="M499,296.56c0-.27,0-.53,0-.79C499,296,499,296.29,499,296.56Z" />
   <path class="cls-4" d="M499,293.75c0,.28,0,.55,0,.83C499,294.3,499,294,499,293.75Z" />
   <path class="cls-4" d="M491.77,258.26l-.12.25,0-.08c.18-.34.34-.69.51-1Z" />
   <path class="cls-4" d="M492.65,256.46c.15-.32.3-.64.44-1C493,255.82,492.8,256.14,492.65,256.46Z" />
   <path class="cls-4" d="M491.72,203.38l.56,1Z" />
   <path class="cls-4" d="M492.76,205.28c.16.3.32.6.47.9C493.08,205.88,492.92,205.58,492.76,205.28Z" />
   <path class="cls-4" d="M493.64,207c.16.33.32.65.47,1C494,207.68,493.8,207.36,493.64,207Z" />
   <path class="cls-4"
      d="M490.15,200.74c-.38-.6-.77-1.21-1.17-1.81C489.38,199.53,489.77,200.14,490.15,200.74Z" />
   <path class="cls-4"
      d="M491.25,202.55c-.23-.4-.48-.8-.73-1.2C490.77,201.75,491,202.15,491.25,202.55Z" />
   <path class="cls-4"
      d="M354.63,239.05a19.92,19.92,0,0,0,2.6,6.21c7.59,13.33,19.21,20.2,34.44,20.89a8,8,0,0,0,8.42-7.38c.32-4.15-2.79-7.72-7.38-8.41-.92-.14-1.86-.11-2.79-.22a24.18,24.18,0,0,1-18.81-12.55c-1.58-2.73-1.76-4.09,2.08-5,24.22-5.44,42.4-27.69,42.9-52.11.12-6-3-9.94-7.85-10-4.72-.06-7.78,3.52-8.1,9.44,0,.27,0,.53,0,.8-1.26,22.64-22.08,39.92-44.56,37.17-8.5-1-15.56-4.86-22.27-9.88-3.85-2.89-8.38-2.18-11,1.15-2.82,3.5-2.31,8.11,1.46,11.34,7,6,14.85,10.41,23.92,12.06C351.69,233.33,353.92,234.89,354.63,239.05Z" />
   <path class="cls-4"
      d="M390.16,354.4c2,0,4,.43,6,.37a8,8,0,0,0,7.75-6.75,7.9,7.9,0,0,0-5.61-8.6,25.19,25.19,0,0,0-6.29-.94c-27.94-1-53.15,19-58.65,46.49-1.26,6.28.93,10.67,5.83,11.67,4.72,1,8.42-2.15,9.75-8.19l.15-.78C353.34,368.69,370.93,354.43,390.16,354.4Z" />
   <path class="cls-4"
      d="M408.34,329.91c3.08,4.92,7.92,6.19,11.82,3.61s4.58-7.44,1.5-12.3c-13.74-21.63-33.53-32.94-59-34.56-5.13-.21-8.37,1.5-9.73,5.24-1.24,3.4-.29,6.28,2.3,8.64,1.87,1.72,4.26,2,6.69,2.09A56.64,56.64,0,0,1,384.22,308,57.32,57.32,0,0,1,408.34,329.91Z" />
   <path class="cls-4"
      d="M64.83,268c2.25-3.65,1.48-6-.25-9.27C52,235.2,55,207,75,188.64c1.6-1.46,1.94-2.64,1.21-4.78a58,58,0,0,1,25.42-68.65c2.73-1.61,3.38-3.3,3.28-6.32A47.84,47.84,0,0,1,138.5,61.76a6.8,6.8,0,0,0,4.59-3.89c2.85-6.23,13.64-13.75,19.15-17.78,23.85-17.43,72.48-12.78,93.22-1.82a55.35,55.35,0,0,1,21.23,19.42c1.37,2.15,2.22,2.51,3.34,1.21,0,1.48.06,2.6.06,3.06-.19,15.79-.19,31.59-.2,47.38q0,12.61,0,25.24c-.25,0-.5-.05-.75-.06.13,0-.66,62.1-.67,67,0,4.52-.67,53.78.25,64.81-.56,31.13-.4,123.94.42,123.94h0q0,8.28,0,16.56c-.49-.25-1.11.06-2,1.56-10,16.63-39.23,21.39-58.33,25.41-.73.15-15.82,2.17-44.24-.86-22.06-2.35-33.26-12.86-43.53-28.82-1.32-2.05-2.93-2.26-5-2.36-30.78-1.5-56.5-31.82-52.79-62.33a8,8,0,0,0-2.26-7.08C55.06,314.8,52.39,288.19,64.83,268ZM85,323.79c4.45,4.15,5.68,8.2,4.57,14.09-4.79,25.59,19.58,51.45,42.92,47.68,4.84-.78,7.65,2,9.71,6a46,46,0,0,0,24,22.35c25.71,10.5,91.67,4.69,101.36-21.79,11.63-31.79-9.47-63.67-43.42-65.6-5.74-.32-9.4-3.68-9.13-8.39s4.11-7.77,9.89-7.52a63,63,0,0,1,42.86,18.52,22.34,22.34,0,0,1,1.91,2.4l1.13-.4v-3.87q0-71.82,0-143.64c0-12.21-4.33-17.26-16.47-19.24-4.61-.75-7.7-4.28-7.38-8.42s3.79-7.37,8.42-7.41c5.27-.05,10.16,1.59,14.77,3.77.91-.54.64-1.27.64-1.86,0-20.21,2.25-40.56,0-60.65-2.57-22.67-7.94-33.34-26-41.68-25.83-12-75.95-1.42-84,11.44.67,1.18,2,1.09,3,1.32a46.19,46.19,0,0,1,21.83,11.76c3.69,3.45,4.23,7.88,1.44,11.36s-7.67,4.15-11.64.72c-8-6.88-16.84-10.39-27.48-8.8a32,32,0,0,0-27,29.25c-.17,2.54.69,2.84,2.9,2.58,30.22-3.6,68.55,24.14,69.27,58.43.08,3.79-1.37,6.76-5,8.32-3.14,1.36-6,.62-8.45-1.66-1.87-1.74-2.39-4.05-2.53-6.52a44,44,0,0,0-15.36-31.7c-16.13-14.28-48.43-14.13-62,2.69C88.32,151.6,85.25,167.1,93.66,184.1c2.9,5.86,1.85,8.69-4,13.11-13.31,10.09-19.06,23.52-15.85,39.87S86.49,264.62,102.25,270a34.57,34.57,0,0,0,9.87,1.78c5.18.2,8.67,3.59,8.62,8s-3.69,7.92-8.78,7.86a49.54,49.54,0,0,1-29.64-10.17c-3.11-2.32-4.14-1.54-5.62,1.56A38.61,38.61,0,0,0,85,323.79Z" />
   <path class="cls-4"
      d="M65.58,270.51c-.15.28-.32.56-.47.85C65.26,271.07,65.43,270.79,65.58,270.51Z" />
   <path class="cls-4" d="M64.64,272.26c-.14.29-.3.58-.44.86C64.34,272.84,64.5,272.55,64.64,272.26Z" />
   <path class="cls-4" d="M63.77,274.05l-.41.86Z" />
   <path class="cls-4" d="M63,275.87c-.12.29-.25.57-.36.86C62.71,276.44,62.84,276.16,63,275.87Z" />
   <path class="cls-4" d="M62.23,277.69c-.11.29-.23.58-.33.87C62,278.27,62.12,278,62.23,277.69Z" />
   <path class="cls-4" d="M61.57,279.53c-.1.3-.2.59-.29.88C61.37,280.12,61.47,279.83,61.57,279.53Z" />
   <path class="cls-4" d="M61,281.42c-.08.29-.17.57-.25.86C60.81,282,60.9,281.71,61,281.42Z" />
   <path class="cls-4" d="M60.47,283.31c-.07.29-.15.57-.22.86C60.32,283.88,60.4,283.6,60.47,283.31Z" />
   <path class="cls-4" d="M60,285.21c-.06.29-.13.58-.18.87C59.9,285.79,60,285.5,60,285.21Z" />
   <path class="cls-4" d="M59.67,287.11l-.15.89Z" />
   <path class="cls-4" d="M59.39,289c0,.3-.09.6-.12.9C59.3,289.64,59.35,289.34,59.39,289Z" />
   <path class="cls-4" d="M59.17,291c0,.28-.06.56-.08.85C59.11,291.6,59.15,291.32,59.17,291Z" />
   <path class="cls-4" d="M59,297.82c0-.2,0-.4,0-.61C59,297.42,59,297.62,59,297.82Z" />
   <path class="cls-4" d="M59,295.83c0-.26,0-.52,0-.78C59,295.31,59,295.57,59,295.83Z" />
   <path class="cls-4" d="M59,293c0,.28,0,.56,0,.83C59,293.58,59,293.3,59,293Z" />
   <path class="cls-4" d="M66.24,257.54a1.92,1.92,0,0,1,.12.25l0-.08c-.18-.35-.34-.7-.51-1Z" />
   <path class="cls-4" d="M65.36,255.73l-.44-1Z" />
   <path class="cls-4" d="M66.29,202.66c-.19.32-.38.65-.55,1C65.91,203.31,66.1,203,66.29,202.66Z" />
   <path class="cls-4" d="M65.25,204.56c-.15.3-.32.6-.47.9C64.93,205.16,65.1,204.86,65.25,204.56Z" />
   <path class="cls-4" d="M64.37,206.31c-.15.32-.32.64-.47,1C64.05,207,64.22,206.63,64.37,206.31Z" />
   <path class="cls-4" d="M67.86,200c.38-.6.77-1.2,1.18-1.8C68.63,198.81,68.24,199.41,67.86,200Z" />
   <path class="cls-4" d="M66.76,201.82c.23-.4.48-.79.73-1.19C67.24,201,67,201.42,66.76,201.82Z" />
   <path class="cls-4"
      d="M202.38,238.32a19.83,19.83,0,0,1-2.6,6.21c-7.59,13.34-19.21,20.2-34.44,20.9a8,8,0,0,1-8.42-7.38c-.32-4.15,2.79-7.72,7.39-8.42.91-.13,1.86-.1,2.78-.22a24.18,24.18,0,0,0,18.81-12.55c1.58-2.73,1.76-4.09-2.08-5-24.22-5.45-42.4-27.7-42.9-52.11-.12-6,3-10,7.85-10,4.72,0,7.79,3.52,8.1,9.44,0,.27,0,.54,0,.8C158.16,202.67,179,220,201.46,217.2c8.5-1,15.57-4.86,22.27-9.88,3.86-2.88,8.38-2.18,11.05,1.15,2.82,3.51,2.32,8.12-1.46,11.34-7,6-14.84,10.42-23.92,12.06C205.32,232.61,203.09,234.16,202.38,238.32Z" />
   <path class="cls-4"
      d="M167.86,353.68c-2,0-4,.42-6,.36a7.82,7.82,0,0,1-2.15-15.35,25.19,25.19,0,0,1,6.29-.94c28-1,53.15,19,58.65,46.49,1.26,6.28-.93,10.67-5.83,11.68-4.71,1-8.42-2.16-9.74-8.2-.06-.26-.1-.52-.16-.78C204.67,368,187.08,353.71,167.86,353.68Z" />
   <path class="cls-4"
      d="M149.67,329.19c-3.08,4.91-7.92,6.18-11.82,3.6s-4.58-7.44-1.49-12.29c13.74-21.64,33.53-32.94,59-34.57,5.12-.21,8.36,1.51,9.72,5.24,1.24,3.4.29,6.28-2.3,8.64-1.87,1.72-4.26,2-6.69,2.1a56.54,56.54,0,0,0-22.27,5.37A57.31,57.31,0,0,0,149.67,329.19Z" />
   <rect class="cls-4" x="271.77" y="68.79" width="8.31" height="327.3" />
   <path class="cls-4"
      d="M357.51,115.54c1.42,0,2.85-.3,4.27-.26a5.6,5.6,0,0,1,1.53,11,18.42,18.42,0,0,1-4.5.68,41.76,41.76,0,0,1-42-33.29c-.91-4.5.66-7.64,4.17-8.36s6,1.54,7,5.87c0,.18.07.37.11.56C331.15,105.32,343.75,115.52,357.51,115.54Z" />
   <path class="cls-4"
      d="M198.34,116.06c-1.42,0-2.85-.3-4.27-.26a5.6,5.6,0,0,0-1.53,11,18.42,18.42,0,0,0,4.5.68,41.77,41.77,0,0,0,42-33.29c.9-4.5-.67-7.64-4.18-8.36s-6,1.54-7,5.87c0,.18-.07.37-.11.56C224.7,105.84,212.1,116,198.34,116.06Z" />
</svg>