<svg id="Layer_1" data-name="Layer 1" xmlns="http://www.w3.org/2000/svg" viewBox="0 0 769.07 726.53">
   <defs>
      <style>.cls-1{fill:#88002c;}</style>
   </defs>
   <rect class="cls-1" x="366.13" y="38.31" width="17.12" height="84.97" rx="8.13"
      transform="translate(749.38 161.6) rotate(-180)" />
   <rect class="cls-1" x="666.71" y="338.9" width="17.12" height="84.97" rx="8.13"
      transform="matrix(0, -1, 1, 0, 293.89, 1056.66)" />
   <rect class="cls-1" x="65.54" y="338.9" width="17.12" height="84.97" rx="8.13"
      transform="translate(-307.28 455.49) rotate(-90)" />
   <rect class="cls-1" x="578.67" y="126.35" width="17.12" height="84.97" rx="8.13"
      transform="translate(883.09 703.46) rotate(-135)" />
   <rect class="cls-1" x="153.58" y="551.44" width="17.12" height="84.97" rx="8.13"
      transform="translate(-143.17 1128.55) rotate(-135)" />
   <rect class="cls-1" x="578.67" y="551.44" width="17.12" height="84.97" rx="8.13"
      transform="translate(-247.97 589.2) rotate(-45)" />
   <rect class="cls-1" x="153.58" y="126.35" width="17.12" height="84.97" rx="8.13"
      transform="translate(-71.89 164.1) rotate(-45)" />
   <rect class="cls-1" x="476.32" y="59.24" width="17.12" height="84.97" rx="8.13"
      transform="translate(898.72 374.13) rotate(-158.49)" />
   <rect class="cls-1" x="645.78" y="449.09" width="17.12" height="84.97" rx="8.13"
      transform="translate(-42.89 920.15) rotate(-68.49)" />
   <rect class="cls-1" x="86.47" y="228.7" width="17.12" height="84.97" rx="8.13"
      transform="translate(-192.11 260.19) rotate(-68.49)" />
   <rect class="cls-1" x="641.79" y="219.07" width="17.12" height="84.97" rx="8.13"
      transform="translate(669.75 962.27) rotate(-113.49)" />
   <rect class="cls-1" x="90.46" y="458.73" width="17.12" height="84.97" rx="8.13"
      transform="translate(-321.16 791.83) rotate(-113.49)" />
   <rect class="cls-1" x="246.3" y="63.23" width="17.12" height="84.97" rx="8.13"
      transform="translate(-21.02 110.36) rotate(-23.49)" />
</svg>